<svg width="1440" height="1024" viewBox="0 0 1440 1024" fill="none" xmlns="http://www.w3.org/2000/svg">
<g clip-path="url(#clip0_363_762)">
<rect width="1440" height="1024" fill="#FFF0F9"/>
<path d="M1417.92 843.136C1466.99 857.373 1500.64 920.821 1498.12 982.102C1495.6 1043.38 1457.24 1102.19 1408.17 1122.31C1359.11 1142.73 1299.36 1124.16 1246.84 1116.73C1194.63 1109.62 1149.65 1113.64 1103.74 1093.21C1057.82 1073.09 1011.27 1028.84 1020.08 993.244C1028.89 957.651 1093.04 930.415 1138.65 916.488C1184.56 902.56 1212.24 901.632 1258.16 883.371C1304.39 865.111 1368.86 829.209 1417.92 843.136Z" fill="#FF8298"/>
<path d="M993.664 567.078C976.211 545.673 993.659 503.429 1010.84 459.13C1028.26 414.938 1044.92 368.478 1079.24 350.985C1113.42 333.154 1165.01 344.182 1208.56 366.389C1251.97 388.257 1287.67 421.175 1309.26 463.192C1330.96 504.976 1338.53 555.858 1323.13 600.094C1307.58 643.991 1268.84 681.709 1230.28 678.823C1191.82 675.704 1153.43 632.214 1108.26 610.408C1063.18 588.37 1010.97 588.143 993.664 567.078Z" fill="#FF8298"/>
<path d="M366.419 1052.44C301.669 1160.69 22.9157 1150.12 -51.1625 1036.83C-125.789 923.549 3.71026 707.051 143.087 712.086C281.915 717.121 431.169 944.191 366.419 1052.44Z" fill="#1E1E1E"/>
<path d="M366.419 1052.44C301.669 1160.69 22.9157 1150.12 -51.1625 1036.83C-125.789 923.549 3.71026 707.051 143.087 712.086C281.915 717.121 431.169 944.191 366.419 1052.44Z" fill="#FF8298"/>
<path d="M809.906 20.1099C843.253 56.1984 853.076 110.454 841.443 153.416C829.811 196.624 796.981 228.785 763.635 249.407C730.288 270.274 696.425 279.603 656.616 285.25C616.807 290.896 571.052 292.86 549.08 272.238C526.849 251.371 528.658 207.917 521.162 157.344C513.665 106.771 496.863 49.0789 519.094 12.9904C541.066 -23.0981 601.814 -37.5826 660.752 -35.8641C719.431 -34.1456 776.56 -15.9786 809.906 20.1099Z" fill="#1E1E1E"/>
<path d="M809.906 20.1099C843.253 56.1984 853.076 110.454 841.443 153.416C829.811 196.624 796.981 228.785 763.635 249.407C730.288 270.274 696.425 279.603 656.616 285.25C616.807 290.896 571.052 292.86 549.08 272.238C526.849 251.371 528.658 207.917 521.162 157.344C513.665 106.771 496.863 49.0789 519.094 12.9904C541.066 -23.0981 601.814 -37.5826 660.752 -35.8641C719.431 -34.1456 776.56 -15.9786 809.906 20.1099Z" fill="#FF8298"/>
<path d="M1365.62 25.8016C1387.66 37.3516 1388.37 78.9316 1390.05 122.129C1391.49 165.326 1394.36 210.14 1372.33 237.167C1350.53 264.425 1304.07 273.896 1260.24 271.124C1216.65 268.583 1175.46 254.03 1142.65 226.772C1109.84 199.745 1085.41 160.013 1082.29 117.509C1079.42 75.2356 1097.86 29.7286 1130.67 18.1786C1163.48 6.85956 1210.66 29.2666 1255.69 31.1146C1300.72 33.1936 1343.83 14.4826 1365.62 25.8016Z" fill="#FF8298"/>
<path d="M265.689 95.4146C304.195 127.261 329.624 171.181 324.296 210.729C319.21 250.278 283.126 285.455 244.62 316.469C206.357 347.484 165.429 374.335 132.009 368.09C98.3464 362.054 71.7071 322.714 45.5521 291.7C19.3972 260.893 -6.27336 237.997 -18.8665 204.485C-31.7018 170.765 -30.9752 126.221 -4.82031 94.582C21.0924 62.9433 72.9179 43.7935 124.501 44.0017C176.085 44.2098 227.184 63.7759 265.689 95.4146Z" fill="#FF8298"/>
<path d="M596.482 450.728C634.143 475.699 654.937 519.632 652.858 561.875C650.547 604.119 625.132 644.672 587.472 667.39C550.042 690.295 500.136 695.552 457.393 689.92C414.418 684.287 378.375 667.953 345.566 645.048C312.527 622.33 282.722 593.042 274.404 556.994C266.086 521.134 279.487 478.515 312.527 453.544C345.566 428.762 398.014 421.815 451.385 421.064C504.757 420.313 558.822 425.945 596.482 450.728Z" fill="#FF8298"/>
<path d="M828.685 792.351C873.787 789.584 916.855 812.114 940.652 847.079C964.264 882.183 968.42 929.862 952.055 970.686C935.988 1011.52 899.329 1045.79 861.824 1067.05C824.134 1088.45 785.527 1097.14 745.542 1098.63C705.485 1100.41 664.05 1095 635.69 1071.24C607.442 1047.64 592.454 1005.55 603.774 965.712C615.206 926.025 652.875 888.876 695.016 856.114C737.156 823.353 783.696 795.268 828.685 792.351Z" fill="#FF8298"/>
</g>
<defs>
<clipPath id="clip0_363_762">
<rect width="1440" height="1024" fill="white"/>
</clipPath>
</defs>
</svg>
